<?xml version="1.0" standalone="no"?>
<!DOCTYPE svg PUBLIC "-//W3C//DTD SVG 20010904//EN"
 "http://www.w3.org/TR/2001/REC-SVG-20010904/DTD/svg10.dtd">
<svg version="1.0" xmlns="http://www.w3.org/2000/svg"
 width="375.000000pt" height="375.000000pt" viewBox="0 0 375.000000 375.000000"
 preserveAspectRatio="xMidYMid meet">
<metadata>
Created by potrace 1.14, written by Peter Selinger 2001-2017
</metadata>
<g transform="translate(0.000000,375.000000) scale(0.100000,-0.100000)"
fill="#000000" stroke="none">
<path d="M1729 2947 c-39 -34 -79 -91 -98 -142 -17 -46 -20 -48 -102 -79 -336
-126 -571 -401 -643 -749 -20 -97 -21 -303 -1 -394 83 -391 359 -682 743 -785
117 -31 319 -36 442 -10 203 42 369 130 511 272 132 131 217 274 269 450 27
93 39 345 21 443 -81 428 -404 748 -830 822 -84 15 -241 21 -241 9 0 -4 27
-47 61 -96 90 -132 110 -183 116 -286 6 -101 21 -132 62 -132 62 0 140 141
128 231 -7 51 6 42 43 -32 46 -90 63 -177 57 -289 -6 -94 -16 -134 -72 -269
-30 -72 -28 -110 7 -148 27 -29 76 -30 111 -2 39 30 56 99 50 205 l-4 89 22
-25 c35 -39 88 -163 116 -269 33 -125 37 -329 9 -431 -42 -153 -145 -288 -281
-368 -67 -39 -210 -92 -285 -106 l-35 -6 55 47 c113 100 176 190 213 308 18
58 22 92 21 200 0 119 -3 138 -32 225 -27 78 -87 209 -67 146 3 -10 8 -58 12
-106 7 -109 -9 -200 -48 -269 -51 -89 -160 -139 -202 -93 -24 26 -21 63 13
162 53 154 59 271 22 425 l-16 70 -7 -71 c-8 -83 -24 -118 -95 -202 -67 -78
-97 -129 -124 -212 -29 -87 -25 -181 10 -229 l24 -34 -33 19 c-57 33 -120 97
-151 154 l-30 55 0 -85 c0 -189 43 -294 169 -418 95 -94 91 -96 -47 -30 -144
70 -296 235 -357 387 -69 169 -55 408 35 624 37 90 129 231 199 307 l51 55
-30 -68 c-50 -111 -73 -228 -67 -327 10 -150 64 -270 122 -270 52 0 59 50 16
104 -42 53 -55 98 -48 175 7 79 28 132 106 260 105 173 119 249 86 461 -24
157 -15 247 30 315 14 19 23 35 22 35 -1 -1 -14 -11 -28 -23z"/>
</g>
</svg>
